<?xml version="1.0" encoding="utf-8"?>
<!-- Svg Vector Icons : http://www.onlinewebfonts.com/icon -->
<!DOCTYPE svg PUBLIC "-//W3C//DTD SVG 1.1//EN" "http://www.w3.org/Graphics/SVG/1.1/DTD/svg11.dtd">
<svg version="1.1" xmlns="http://www.w3.org/2000/svg" xmlns:xlink="http://www.w3.org/1999/xlink" x="0px" y="0px" viewBox="0 0 1000 1000" enable-background="new 0 0 1000 1000" xml:space="preserve">
<metadata> Svg Vector Icons : http://www.onlinewebfonts.com/icon </metadata>
<g><path d="M836.4,760.6c-39.5,0-71.5-31.7-71.5-70.7c0-39.1,32-70.7,71.5-70.7c39.5,0,71.5,31.6,71.5,70.7C907.9,729,875.9,760.6,836.4,760.6z M883.7,368.8l-164.3-1.9v97.5h187.5L883.7,368.8L883.7,368.8z M962.9,669.4h-47.5c-9.2-34.7-41.1-60.3-79-60.3c-37.9,0-69.8,25.6-79,60.3h-57.4V348.3h202.7l60.2,265.6H990v55.4H962.9L962.9,669.4z M201.1,669.4c-9.3-34.7-41.1-60.3-79-60.3c-37.9,0-69.7,25.6-79,60.3H10v-430h663v430H201.1L201.1,669.4z M122.1,760.6c-39.5,0-71.5-31.7-71.5-70.7c0-39.1,32-70.7,71.5-70.7c39.5,0,71.5,31.6,71.5,70.7C193.7,729,161.6,760.6,122.1,760.6L122.1,760.6z"/></g>
</svg>