<?xml version="1.0" encoding="utf-8"?>
<!-- Svg Vector Icons : http://www.onlinewebfonts.com/icon -->
<!DOCTYPE svg PUBLIC "-//W3C//DTD SVG 1.1//EN" "http://www.w3.org/Graphics/SVG/1.1/DTD/svg11.dtd">
<svg version="1.1" xmlns="http://www.w3.org/2000/svg" xmlns:xlink="http://www.w3.org/1999/xlink" x="0px" y="0px" viewBox="0 0 1000 1000" enable-background="new 0 0 1000 1000" xml:space="preserve">
<metadata> Svg Vector Icons : http://www.onlinewebfonts.com/icon </metadata>
<g><path d="M438.8,239.7v275.6c0,9.2,6.1,15.3,15.3,15.3h214.4c9.2,0,15.3-6.1,15.3-15.3v-30.6c0-9.2-6.1-15.3-15.3-15.3H500V239.7c0-9.2-6.1-15.3-15.3-15.3h-30.6C444.9,224.4,438.8,230.5,438.8,239.7z M898.1,408.1l-91.9,153.1h55.1c-30.6,189.9-192.9,336.9-392,336.9C248.9,898.1,71.3,720.5,71.3,500s177.6-398.1,398.1-398.1V40.6C215.2,40.6,10,245.8,10,500s205.2,459.4,459.4,459.4c232.8,0,425.7-174.6,456.3-398.1H990L898.1,408.1z"/></g>
</svg>