<?xml version="1.0" encoding="utf-8"?>
<!-- Svg Vector Icons : http://www.onlinewebfonts.com/icon -->
<!DOCTYPE svg PUBLIC "-//W3C//DTD SVG 1.1//EN" "http://www.w3.org/Graphics/SVG/1.1/DTD/svg11.dtd">
<svg version="1.1" xmlns="http://www.w3.org/2000/svg" xmlns:xlink="http://www.w3.org/1999/xlink" x="0px" y="0px" viewBox="0 0 1000 1000" enable-background="new 0 0 1000 1000" xml:space="preserve">
<metadata> Svg Vector Icons : http://www.onlinewebfonts.com/icon </metadata>
<g><g transform="translate(0.000000,511.000000) scale(0.100000,-0.100000)"><path d="M4048.6,2406.7c-89.7-38.8-148.9-108.1-173.4-206c-79.5-295.7-363-628.2-652.7-762.8c-248.8-116.3-454.8-153-783.2-138.7c-373.2,16.3-618,91.8-891.3,271.3c-183.6,122.4-420.1,377.3-511.9,554.8C907.7,2368,824,2408.8,483.4,2390.4c-195.8-10.2-283.5-51-340.6-159.1c-36.7-67.3-38.7-148.9-38.7-1676.5v-1607.2h1250.2h1250.2L4054.7,399.8L5506.8,1852l-259,173.4c-142.8,95.9-314.1,218.2-381.4,269.2c-67.3,51-153,104-191.7,116.2C4576.8,2445.5,4128.1,2441.4,4048.6,2406.7z M1260.5,28.6c110.1-48.9,169.3-142.8,169.3-265.1c0-171.3-116.3-285.5-287.6-285.5c-222.3,0-359,252.9-242.7,444.6c38.7,65.3,175.4,146.8,244.7,146.8C1160.6,69.4,1213.6,51.1,1260.5,28.6z M2372.1,49c140.7-40.8,246.8-220.3,210.1-361c-6.1-30.6-46.9-89.7-89.7-132.6c-69.3-67.3-91.8-77.5-173.4-77.5c-393.6,0-422.2,526.2-32.6,589.4C2292.5,69.4,2331.3,59.2,2372.1,49z"/><path d="M4733.8,242.8L3438.7-1052.3l458.9,4.1l458.9,2L5496.6,102.1l1140.1,1146.2l-289.6,144.8c-159.1,79.5-295.7,144.8-303.9,144.8C6035.1,1537.9,5445.6,954.6,4733.8,242.8z"/><path d="M6192.1-12.2L5152-1052.3h2374h2374l-14.3,204c-53,762.8-444.6,1219.7-1299.2,1519.5C8400.9,736.4,7309.8,1028,7252.7,1028C7242.5,1028,6763.2,561,6192.1-12.2z"/><path d="M108.2-1835.5c6.1-218.2,36.7-281.5,161.1-342.7c65.3-34.7,332.4-36.7,4729.7-36.7c4397.2,0,4664.4,2.1,4729.7,36.7c124.4,61.2,155,124.4,161.1,342.7l8.2,191.7H4999H100L108.2-1835.5z"/></g></g>
</svg>